<?xml version="1.0" standalone="no"?>
<!DOCTYPE svg PUBLIC "-//W3C//DTD SVG 20010904//EN"
 "http://www.w3.org/TR/2001/REC-SVG-20010904/DTD/svg10.dtd">
<svg version="1.0" xmlns="http://www.w3.org/2000/svg"
 width="866.000000pt" height="650.000000pt" viewBox="0 0 866.000000 650.000000"
 preserveAspectRatio="xMidYMid meet">

<g transform="translate(0.000000,650.000000) scale(0.100000,-0.100000)"
fill="#000000" stroke="none">
<path d="M7007 4554 c-60 -119 -112 -213 -116 -208 -4 5 -33 48 -64 96 -99
151 -237 254 -374 279 -304 56 -590 -294 -668 -818 -21 -139 -21 -409 0 -528
18 -105 56 -243 84 -306 l20 -44 -5 95 c-3 52 -7 103 -9 113 -8 42 15 309 35
397 78 349 215 568 418 667 50 24 69 27 152 28 92 0 98 -1 170 -40 92 -49 208
-162 264 -258 21 -37 41 -65 44 -62 3 3 54 98 115 212 l109 208 -27 175 c-16
96 -31 183 -34 192 -4 12 -41 -51 -114 -198z"/>
<path d="M1430 4750 c0 -6 31 -115 69 -243 39 -128 131 -439 206 -692 74 -253
147 -496 160 -540 13 -44 121 -408 240 -810 119 -401 218 -738 221 -747 3 -10
13 -18 23 -18 14 0 26 29 59 137 90 300 491 1642 507 1698 12 41 19 55 25 45
7 -13 363 -1197 513 -1708 41 -136 55 -172 68 -172 22 0 -6 -89 289 910 89
300 192 649 230 775 38 127 114 385 170 575 56 190 111 364 123 388 l21 42
318 0 c175 0 318 -4 318 -9 0 -4 -22 -46 -48 -92 -83 -143 -234 -405 -356
-614 l-116 -200 0 -92 0 -93 113 0 c394 -1 577 -193 577 -606 0 -179 -35 -316
-109 -430 -51 -80 -96 -123 -159 -152 -47 -21 -65 -24 -136 -20 -96 5 -167 34
-238 97 -51 45 -126 152 -158 224 l-20 46 -151 -62 -151 -61 6 -30 c4 -17 24
-68 45 -113 156 -325 424 -500 736 -480 50 4 117 13 150 22 292 75 522 367
586 745 17 98 16 335 0 430 -42 236 -156 443 -316 573 -51 41 -154 98 -243
133 -22 9 -20 14 79 184 56 96 125 216 154 265 29 50 110 188 179 307 l126
218 0 90 0 90 -743 0 -743 0 -47 -157 c-112 -381 -227 -772 -359 -1220 -78
-266 -143 -481 -145 -479 -2 1 -57 187 -123 412 -67 225 -181 614 -255 864
-74 250 -142 483 -152 517 l-18 63 -199 0 c-170 0 -197 -2 -193 -15 4 -8 45
-144 92 -303 l86 -289 -76 -259 c-43 -142 -110 -369 -150 -504 -40 -135 -87
-297 -106 -360 -34 -120 -36 -126 -43 -119 -3 2 -77 252 -166 554 -141 482
-361 1227 -376 1278 -5 15 -23 17 -200 17 -127 0 -194 -4 -194 -10z"/>
<path d="M5630 2608 c0 -3 16 -53 36 -110 126 -363 358 -653 596 -742 188 -71
395 -47 564 66 101 68 218 186 290 293 94 141 92 133 60 301 -16 79 -30 144
-31 144 -1 0 -29 -44 -61 -97 -66 -110 -202 -259 -301 -329 -130 -94 -276
-140 -414 -131 -153 10 -287 68 -424 185 -92 79 -159 162 -245 307 -38 65 -70
116 -70 113z"/>
</g>
</svg>
